<svg width="98" height="41" viewBox="0 0 98 41" fill="none" xmlns="http://www.w3.org/2000/svg">
<path fill-rule="evenodd" clip-rule="evenodd" d="M17.9747 8.78781C17.7933 8.24034 17.902 7.6807 18.1848 7.22213C18.194 7.2073 21.857 1.28856 21.9384 1.15723C22.2295 0.679085 22.699 0.305072 23.2814 0.119549C24.5827 -0.29501 25.9803 0.403174 26.4031 1.67899C26.6938 2.55617 26.4193 3.4472 25.843 4.10315C25.8315 4.1163 21.1598 9.43368 21.1476 9.44633C20.9347 9.67913 20.6595 9.86287 20.3343 9.96641C19.3507 10.2798 18.2942 9.75211 17.9747 8.78781ZM14.3292 14.7321C12.1155 13.7896 9.01446 12.4694 9.00407 12.4646C8.49792 12.2364 8.10685 11.7876 8.01355 11.2101C7.86789 10.3088 8.49519 9.46235 9.4144 9.31965C9.64902 9.28326 9.87971 9.29661 10.0959 9.351L18.1285 11.1004C19.0846 11.3109 19.8561 12.0792 20.0188 13.0863C20.2328 14.4111 19.3108 15.6553 17.9594 15.8652C17.4487 15.9445 16.9575 15.8531 16.515 15.6627L14.3292 14.7321ZM31.6683 16.0405C31.1359 15.9194 30.5596 15.9919 30.0852 16.331C29.2496 16.9283 29.066 18.0767 29.6753 18.8961C29.8767 19.1669 30.1403 19.3663 30.4322 19.4924C30.4481 19.4999 37.0544 22.2022 37.0707 22.2088C37.8857 22.5421 38.8348 22.5213 39.5949 21.9779C40.7006 21.1877 40.9434 19.6683 40.1374 18.5843C39.7766 18.0992 39.2682 17.7778 38.7143 17.6551L31.6683 16.0405ZM26.5265 29.9278C27.0015 30.266 27.2493 30.7814 27.2955 31.3154C27.297 31.3327 27.883 38.2317 27.8959 38.385C27.9472 38.9395 27.7916 39.5127 27.4317 39.9986C26.6276 41.0838 25.0785 41.3247 23.9714 40.5363C23.2102 39.9943 22.8979 39.1154 22.9707 38.2524L23.0456 37.366C23.2049 35.4796 23.5633 31.2374 23.5651 31.2239C23.5976 30.9129 23.7101 30.6056 23.911 30.3344C24.5188 29.5139 25.6898 29.332 26.5265 29.9278ZM11.1024 31.9853C11.6064 31.7778 12.0302 31.3881 12.2122 30.8409C12.5328 29.8769 11.9955 28.8406 11.0123 28.5263C10.6872 28.4225 10.3545 28.4121 10.0425 28.4775C10.0251 28.4807 3.0561 30.0835 3.03895 30.0874C2.17915 30.2851 1.42234 30.847 1.13073 31.7239C0.706576 32.9993 1.41729 34.3703 2.71809 34.786C3.3004 34.9722 3.9045 34.9408 4.42679 34.7223L11.1024 31.9853ZM6.92657 17.757C6.33952 17.7573 5.83003 17.4832 5.47245 17.0779C5.46085 17.0648 0.849364 11.822 0.746982 11.7055C0.372963 11.2865 0.155088 10.7332 0.154785 10.1328C0.154281 8.79137 1.26302 7.70355 2.6313 7.70306C3.572 7.70266 4.35171 8.23362 4.81035 8.97353L5.39444 9.91621C6.44335 11.609 8.53834 14.9899 8.54469 15.0015C8.70487 15.2719 8.79828 15.5851 8.79838 15.9205C8.79878 16.9344 7.96067 17.7566 6.92657 17.757ZM23.0741 16.0278L23.0736 16.0327L22.9705 17.0829C22.9223 17.5542 22.9853 18.0404 23.2198 18.4923C23.8405 19.6877 25.3322 20.1636 26.5516 19.5551C27.4784 19.0925 27.9857 18.136 27.8947 17.1794L27.1128 9.14868C27.0988 8.93023 27.0406 8.71088 26.9328 8.50341C26.5106 7.69021 25.4959 7.36653 24.6664 7.7805C24.1349 8.04573 23.8202 8.549 23.755 9.09142C23.7533 9.1048 23.2868 13.8599 23.0741 16.0278ZM23.5844 23.543C23.6015 23.5393 31.5599 21.8014 31.5774 21.798C32.1236 21.6908 32.7091 21.8281 33.131 22.2413C33.7896 22.8863 33.7901 23.9325 33.1323 24.578C32.9644 24.7428 32.7698 24.8649 32.5623 24.9456L25.0167 28.1631C24.1173 28.5443 23.0324 28.3679 22.2966 27.6471C21.3287 26.6991 21.3279 25.1612 22.2949 24.2121C22.6603 23.8534 23.1124 23.6442 23.5844 23.543ZM18.445 27.6512L18.4389 27.6411L17.5188 26.1102C17.2751 25.7011 16.9327 25.3441 16.472 25.1136C15.2531 24.5043 13.761 24.979 13.1396 26.1741C12.667 27.0826 12.8302 28.1487 13.4774 28.8701C13.489 28.8831 18.9135 34.903 18.9252 34.916C19.0675 35.0847 19.2459 35.2285 19.4575 35.3342C20.2867 35.7488 21.3016 35.4259 21.7245 34.6129C21.9954 34.092 21.9482 33.5034 21.6757 33.0271C21.6697 33.0165 19.6682 29.6864 18.445 27.6512ZM11.9435 22.5848C10.347 24.3533 7.7297 27.2525 7.72128 27.2614C7.34323 27.6625 6.78684 27.8882 6.19787 27.7963C5.27866 27.6529 4.65196 26.8061 4.79822 25.9049C4.83554 25.6751 4.91997 25.4641 5.0397 25.2794L9.22371 18.3329C9.72371 17.5067 10.7077 17.0255 11.7349 17.1857C13.0862 17.3964 14.0073 18.6412 13.7923 19.966C13.7111 20.4667 13.4704 20.8963 13.1488 21.2497C13.1452 21.2536 12.6421 21.811 11.9435 22.5848Z" fill="#FA4949"/>
<path fill-rule="evenodd" clip-rule="evenodd" d="M71.9791 7.90596H66.3422C65.8371 8.98395 62.3249 16.5132 60.7161 20.8089L60.6059 21.1032H60.4159L60.3058 20.8089C58.6969 16.5132 55.1848 8.98395 54.6797 7.90596H49.0428C47.8246 17.0093 47.2207 31.0888 47.1387 33.105H52.751C52.8034 31.4174 53.1401 20.7955 53.373 18.4085L53.4315 17.8064H53.5695L53.7936 18.3375C55.6658 22.7718 58.0776 28.8634 58.4758 29.8715H62.5461C62.9443 28.8634 65.356 22.7718 67.2283 18.3375L67.4524 17.8064H67.5903L67.6489 18.4085C67.8821 20.7955 68.2188 31.4174 68.2713 33.105H73.8832C73.8011 31.0888 73.1973 17.0097 71.9791 7.90596ZM85.9516 12.4672C85.4252 12.4672 84.0434 12.4468 83.2222 12.6035V17.5465L83.4304 17.5675C83.4416 17.5686 84.5696 17.6665 85.8699 17.6665C87.9786 17.6665 89.2018 17.5007 89.9434 16.8234C90.6898 16.1415 90.8808 15.0189 90.4179 14.0548C89.6872 12.5369 87.4067 12.4672 85.9516 12.4672ZM83.2265 28.1152C84.4468 28.194 85.7649 28.2493 87.0896 28.2008C88.1174 28.1632 89.4792 28.0803 90.4452 27.0539C91.3094 26.1371 91.4653 24.7621 90.821 23.6301C90.2228 22.5786 89.0297 22.064 86.1359 22.0999C84.6744 22.0999 83.2633 22.2611 83.2126 22.2684L83.2265 28.1152ZM85.6581 33.3125C82.6092 33.3125 79.7533 33.2406 77.5258 33.1138V7.91482C78.3009 7.8458 80.7009 7.79117 84.0961 7.70329C86.2244 7.64826 88.259 7.73498 89.8522 7.99648C93.4587 8.58821 94.772 10.3769 95.3387 11.36C95.883 12.3078 96.2458 13.362 96.159 14.7317C96.0573 16.3385 95.5555 17.6569 93.9741 18.9538L93.6953 19.1827L94.0128 19.3486C95.1084 19.9218 95.8091 20.8325 96.2878 21.7251C96.8629 22.8028 97.1546 24.031 97.1546 25.3751C97.1546 28.0924 96.2152 30.1472 94.3062 31.5237C92.6138 32.745 90.2527 33.3125 85.6581 33.3125Z" fill="#141ED2"/>
</svg>
